# Blender v2.83.0 OBJ File: ''
# www.blender.org
mtllib calota135.mtl
o Sphere.001
v 0.000000 1.961571 -0.390181
v 0.000000 1.847759 -0.765367
v 0.000000 1.662939 -1.111140
v 0.000000 1.414214 -1.414214
v 0.000000 1.111140 -1.662939
v 0.000000 0.765367 -1.847759
v 0.000000 0.390181 -1.961571
v 0.000000 0.000000 -2.000000
v 0.000000 -0.390180 -1.961571
v 0.000000 -1.662939 -1.111140
v 0.076121 1.961571 -0.382683
v 0.149316 1.847759 -0.750661
v 0.216773 1.662939 -1.089790
v 0.275899 1.414214 -1.387040
v 0.324423 1.111140 -1.630986
v 0.360480 0.765367 -1.812255
v 0.382684 0.390181 -1.923879
v 0.390181 0.000000 -1.961571
v 0.382684 -0.390180 -1.923880
v 0.360480 -0.765367 -1.812255
v 0.324423 -1.111140 -1.630986
v 0.275899 -1.414214 -1.387040
v 0.216773 -1.662939 -1.089790
v 0.149316 -1.847759 -0.750660
v 0.076121 -1.961571 -0.382683
v 0.149316 1.961571 -0.360480
v 0.292893 1.847759 -0.707107
v 0.425215 1.662939 -1.026560
v 0.541196 1.414214 -1.306563
v 0.636380 1.111140 -1.536355
v 0.707107 0.765367 -1.707107
v 0.750661 0.390181 -1.812255
v 0.765367 0.000000 -1.847759
v 0.750661 -0.390180 -1.812255
v 0.707107 -0.765367 -1.707107
v 0.636380 -1.111140 -1.536355
v 0.541196 -1.414214 -1.306563
v 0.425215 -1.662939 -1.026560
v 0.292893 -1.847759 -0.707106
v 0.149316 -1.961571 -0.360479
v 0.216773 1.961571 -0.324423
v 0.425215 1.847759 -0.636379
v 0.617317 1.662939 -0.923879
v 0.785695 1.414214 -1.175875
v 0.923880 1.111140 -1.382683
v 1.026560 0.765367 -1.536355
v 1.089790 0.390181 -1.630986
v 1.111141 0.000000 -1.662939
v 1.089790 -0.390180 -1.630986
v 1.026560 -0.765367 -1.536355
v 0.923880 -1.111140 -1.382683
v 0.785695 -1.414214 -1.175875
v 0.617317 -1.662939 -0.923879
v 0.425215 -1.847759 -0.636379
v 0.216773 -1.961571 -0.324423
v 0.275900 1.961571 -0.275899
v 0.541197 1.847759 -0.541196
v 0.785695 1.662939 -0.785695
v 1.000000 1.414214 -1.000000
v 1.175876 1.111140 -1.175875
v 1.306563 0.765367 -1.306563
v 1.387040 0.390181 -1.387039
v 1.414214 0.000000 -1.414213
v 1.387040 -0.390180 -1.387039
v 1.306563 -0.765367 -1.306563
v 1.175876 -1.111140 -1.175875
v 1.000000 -1.414214 -1.000000
v 0.785695 -1.662939 -0.785695
v 0.541196 -1.847759 -0.541196
v 0.275899 -1.961571 -0.275899
v 0.324424 1.961571 -0.216772
v 0.636380 1.847759 -0.425215
v 0.923880 1.662939 -0.617316
v 1.175876 1.414214 -0.785695
v 1.382684 1.111140 -0.923879
v 1.536356 0.765367 -1.026560
v 1.630987 0.390181 -1.089790
v 1.662940 0.000000 -1.111140
v 1.630987 -0.390180 -1.089790
v 1.536356 -0.765367 -1.026560
v 1.382684 -1.111140 -0.923879
v 1.175876 -1.414214 -0.785695
v 0.923880 -1.662939 -0.617316
v 0.636380 -1.847759 -0.425215
v 0.324423 -1.961571 -0.216772
v 0.360480 1.961571 -0.149315
v 0.707107 1.847759 -0.292893
v 1.026560 1.662939 -0.425215
v 1.306563 1.414214 -0.541196
v 1.536356 1.111140 -0.636379
v 1.707107 0.765367 -0.707106
v 1.812255 0.390181 -0.750660
v 1.847759 0.000000 -0.765366
v 1.812255 -0.390180 -0.750660
v 1.707107 -0.765367 -0.707106
v 1.536356 -1.111140 -0.636379
v 1.306563 -1.414214 -0.541196
v 1.026560 -1.662939 -0.425215
v 0.707107 -1.847759 -0.292893
v 0.360480 -1.961571 -0.149315
v 0.000000 -2.000000 0.000001
v -0.000000 2.000000 0.000001
v -0.360480 1.961571 -0.149315
v -0.707107 1.847759 -0.292893
v -1.026560 1.662939 -0.425214
v -1.306563 1.414214 -0.541196
v -1.536355 1.111140 -0.636379
v -1.707107 0.765367 -0.707106
v -1.812254 0.390181 -0.750660
v -1.847758 0.000000 -0.765366
v -1.812254 -0.390180 -0.750660
v -1.707107 -0.765367 -0.707106
v -1.536355 -1.111140 -0.636379
v -1.306563 -1.414214 -0.541196
v -1.026559 -1.662939 -0.425214
v -0.707106 -1.847759 -0.292893
v -0.360480 -1.961571 -0.149315
v -0.324424 1.961571 -0.216772
v -0.636379 1.847759 -0.425214
v -0.923879 1.662939 -0.617316
v -1.175875 1.414214 -0.785694
v -1.382682 1.111140 -0.923879
v -1.536355 0.765367 -1.026559
v -1.630985 0.390181 -1.089789
v -1.662938 0.000000 -1.111140
v -1.630985 -0.390180 -1.089789
v -1.536355 -0.765367 -1.026559
v -1.382682 -1.111140 -0.923879
v -1.175875 -1.414214 -0.785694
v -0.923879 -1.662939 -0.617316
v -0.636379 -1.847759 -0.425214
v -0.324423 -1.961571 -0.216772
v -0.275900 1.961571 -0.275899
v -0.541196 1.847759 -0.541195
v -0.785695 1.662939 -0.785694
v -1.000000 1.414214 -0.999999
v -1.175875 1.111140 -1.175875
v -1.306563 0.765367 -1.306562
v -1.387039 0.390181 -1.387039
v -1.414213 0.000000 -1.414213
v -1.387039 -0.390180 -1.387039
v -1.306563 -0.765367 -1.306562
v -1.175875 -1.111140 -1.175875
v -1.000000 -1.414214 -0.999999
v -0.785694 -1.662939 -0.785694
v -0.541196 -1.847759 -0.541195
v -0.275899 -1.961571 -0.275899
v -0.216773 1.961571 -0.324423
v -0.425215 1.847759 -0.636379
v -0.617316 1.662939 -0.923879
v -0.785695 1.414214 -1.175875
v -0.923879 1.111140 -1.382682
v -1.026560 0.765367 -1.536355
v -1.089789 0.390181 -1.630985
v -1.111140 0.000000 -1.662938
v -1.089789 -0.390180 -1.630985
v -1.026560 -0.765367 -1.536355
v -0.923879 -1.111140 -1.382682
v -0.785695 -1.414214 -1.175875
v -0.617316 -1.662939 -0.923879
v -0.425215 -1.847759 -0.636378
v -0.216773 -1.961571 -0.324423
v -0.149316 1.961571 -0.360480
v -0.292893 1.847759 -0.707106
v -0.425215 1.662939 -1.026559
v -0.541196 1.414214 -1.306562
v -0.636378 1.111140 -1.536354
v -0.707107 0.765367 -1.707106
v -0.750660 0.390181 -1.812253
v -0.765366 0.000000 -1.847758
v -0.750660 -0.390180 -1.812253
v -0.707107 -0.765367 -1.707106
v -0.636378 -1.111140 -1.536354
v -0.541196 -1.414214 -1.306562
v -0.425215 -1.662939 -1.026559
v -0.292893 -1.847759 -0.707106
v -0.149316 -1.961571 -0.360479
v -0.076120 1.961571 -0.382683
v -0.149315 1.847759 -0.750660
v -0.216772 1.662939 -1.089789
v -0.275899 1.414214 -1.387039
v -0.324423 1.111140 -1.630985
v -0.360480 0.765367 -1.812254
v -0.382683 0.390181 -1.923878
v -0.390180 0.000000 -1.961569
v -0.382683 -0.390180 -1.923878
v -0.360480 -0.765367 -1.812254
v -0.324423 -1.111140 -1.630985
v -0.275899 -1.414214 -1.387039
v -0.216772 -1.662939 -1.089789
v -0.149315 -1.847759 -0.750660
v -0.076120 -1.961571 -0.382683
v 0.000000 -0.765367 -1.847758
v 0.000001 -1.111140 -1.662938
v 0.000000 -1.414214 -1.414213
v 0.000000 -1.847759 -0.765366
v 0.000000 -1.961571 -0.390180
vt 0.750000 0.500000
vt 0.718750 0.500000
vt 0.718750 0.562500
vt 0.750000 0.562500
vt 0.750000 0.937500
vt 0.718750 0.937500
vt 0.734375 1.000000
vt 0.734375 0.000000
vt 0.718750 0.062500
vt 0.750000 0.062500
vt 0.750000 0.437500
vt 0.718750 0.437500
vt 0.750000 0.875000
vt 0.718750 0.875000
vt 0.750000 0.375000
vt 0.718750 0.375000
vt 0.750000 0.812500
vt 0.718750 0.812500
vt 0.750000 0.312500
vt 0.718750 0.312500
vt 0.750000 0.750000
vt 0.718750 0.750000
vt 0.750000 0.250000
vt 0.718750 0.250000
vt 0.750000 0.687500
vt 0.718750 0.687500
vt 0.750000 0.187500
vt 0.718750 0.187500
vt 0.750000 0.625000
vt 0.718750 0.625000
vt 0.750000 0.125000
vt 0.718750 0.125000
vt 0.687500 0.562500
vt 0.687500 0.625000
vt 0.687500 0.062500
vt 0.687500 0.125000
vt 0.687500 0.500000
vt 0.687500 0.937500
vt 0.703125 1.000000
vt 0.703125 0.000000
vt 0.687500 0.437500
vt 0.687500 0.875000
vt 0.687500 0.375000
vt 0.687500 0.812500
vt 0.687500 0.312500
vt 0.687500 0.750000
vt 0.687500 0.250000
vt 0.687500 0.687500
vt 0.687500 0.187500
vt 0.656250 0.312500
vt 0.656250 0.375000
vt 0.656250 0.750000
vt 0.656250 0.812500
vt 0.656250 0.250000
vt 0.656250 0.687500
vt 0.656250 0.187500
vt 0.656250 0.625000
vt 0.656250 0.125000
vt 0.656250 0.562500
vt 0.656250 0.062500
vt 0.656250 0.500000
vt 0.656250 0.937500
vt 0.671875 1.000000
vt 0.671875 0.000000
vt 0.656250 0.437500
vt 0.656250 0.875000
vt 0.625000 0.062500
vt 0.625000 0.125000
vt 0.625000 0.500000
vt 0.625000 0.562500
vt 0.625000 0.937500
vt 0.640625 1.000000
vt 0.640625 0.000000
vt 0.625000 0.437500
vt 0.625000 0.875000
vt 0.625000 0.375000
vt 0.625000 0.812500
vt 0.625000 0.312500
vt 0.625000 0.750000
vt 0.625000 0.250000
vt 0.625000 0.687500
vt 0.625000 0.187500
vt 0.625000 0.625000
vt 0.593750 0.750000
vt 0.593750 0.812500
vt 0.593750 0.250000
vt 0.593750 0.312500
vt 0.593750 0.687500
vt 0.593750 0.187500
vt 0.593750 0.625000
vt 0.593750 0.125000
vt 0.593750 0.562500
vt 0.593750 0.062500
vt 0.593750 0.500000
vt 0.593750 0.937500
vt 0.609375 1.000000
vt 0.609375 0.000000
vt 0.593750 0.437500
vt 0.593750 0.875000
vt 0.593750 0.375000
vt 0.562500 0.500000
vt 0.562500 0.562500
vt 0.562500 0.937500
vt 0.578125 1.000000
vt 0.578125 0.000000
vt 0.562500 0.062500
vt 0.562500 0.437500
vt 0.562500 0.875000
vt 0.562500 0.375000
vt 0.562500 0.812500
vt 0.562500 0.312500
vt 0.562500 0.750000
vt 0.562500 0.250000
vt 0.562500 0.687500
vt 0.562500 0.187500
vt 0.562500 0.625000
vt 0.562500 0.125000
vt 0.937500 0.312500
vt 0.906250 0.312500
vt 0.906250 0.375000
vt 0.937500 0.375000
vt 0.937500 0.750000
vt 0.906250 0.750000
vt 0.906250 0.812500
vt 0.937500 0.812500
vt 0.937500 0.250000
vt 0.906250 0.250000
vt 0.937500 0.687500
vt 0.906250 0.687500
vt 0.937500 0.187500
vt 0.906250 0.187500
vt 0.937500 0.625000
vt 0.906250 0.625000
vt 0.937500 0.125000
vt 0.906250 0.125000
vt 0.937500 0.562500
vt 0.906250 0.562500
vt 0.937500 0.062500
vt 0.906250 0.062500
vt 0.937500 0.500000
vt 0.906250 0.500000
vt 0.937500 0.937500
vt 0.906250 0.937500
vt 0.921875 1.000000
vt 0.921875 0.000000
vt 0.937500 0.437500
vt 0.906250 0.437500
vt 0.937500 0.875000
vt 0.906250 0.875000
vt 0.875000 0.062500
vt 0.875000 0.125000
vt 0.875000 0.500000
vt 0.875000 0.562500
vt 0.875000 0.937500
vt 0.890625 1.000000
vt 0.890625 0.000000
vt 0.875000 0.437500
vt 0.875000 0.875000
vt 0.875000 0.375000
vt 0.875000 0.812500
vt 0.875000 0.312500
vt 0.875000 0.750000
vt 0.875000 0.250000
vt 0.875000 0.687500
vt 0.875000 0.187500
vt 0.875000 0.625000
vt 0.843750 0.750000
vt 0.843750 0.812500
vt 0.843750 0.250000
vt 0.843750 0.312500
vt 0.843750 0.687500
vt 0.843750 0.187500
vt 0.843750 0.625000
vt 0.843750 0.125000
vt 0.843750 0.562500
vt 0.843750 0.062500
vt 0.843750 0.500000
vt 0.843750 0.937500
vt 0.859375 1.000000
vt 0.859375 0.000000
vt 0.843750 0.437500
vt 0.843750 0.875000
vt 0.843750 0.375000
vt 0.812500 0.500000
vt 0.812500 0.562500
vt 0.812500 0.937500
vt 0.828125 1.000000
vt 0.828125 0.000000
vt 0.812500 0.062500
vt 0.812500 0.437500
vt 0.812500 0.875000
vt 0.812500 0.375000
vt 0.812500 0.812500
vt 0.812500 0.312500
vt 0.812500 0.750000
vt 0.812500 0.250000
vt 0.812500 0.687500
vt 0.812500 0.187500
vt 0.812500 0.625000
vt 0.812500 0.125000
vt 0.781250 0.250000
vt 0.781250 0.312500
vt 0.781250 0.687500
vt 0.781250 0.750000
vt 0.781250 0.187500
vt 0.781250 0.625000
vt 0.781250 0.125000
vt 0.781250 0.562500
vt 0.781250 0.062500
vt 0.781250 0.500000
vt 0.781250 0.937500
vt 0.796875 1.000000
vt 0.796875 0.000000
vt 0.781250 0.437500
vt 0.781250 0.875000
vt 0.781250 0.375000
vt 0.781250 0.812500
vt 0.765625 1.000000
vt 0.765625 0.000000
vn -0.0975 -0.0975 0.9904
vn -0.0097 -0.9951 0.0980
vn -0.0097 0.9951 0.0980
vn -0.0976 0.0975 0.9904
vn -0.0286 -0.9565 0.2902
vn -0.0938 0.2890 0.9527
vn -0.0464 -0.8810 0.4709
vn -0.0865 0.4696 0.8786
vn -0.0624 -0.7715 0.6332
vn -0.0759 0.6326 0.7708
vn -0.0759 -0.6326 0.7708
vn -0.0624 0.7715 0.6332
vn -0.0865 -0.4696 0.8786
vn -0.0464 0.8810 0.4709
vn -0.0938 -0.2890 0.9527
vn -0.0286 0.9565 0.2902
vn -0.2779 -0.2890 0.9161
vn -0.0846 0.9565 0.2790
vn -0.2889 -0.0975 0.9524
vn -0.0286 -0.9951 0.0942
vn -0.0286 0.9951 0.0942
vn -0.2889 0.0975 0.9524
vn -0.0846 -0.9565 0.2790
vn -0.2779 0.2890 0.9161
vn -0.1374 -0.8810 0.4528
vn -0.2563 0.4696 0.8448
vn -0.1847 -0.7715 0.6088
vn -0.2248 0.6326 0.7412
vn -0.2248 -0.6326 0.7412
vn -0.1847 0.7715 0.6088
vn -0.2563 -0.4696 0.8448
vn -0.1374 0.8810 0.4528
vn -0.4162 0.4696 0.7786
vn -0.2999 -0.7715 0.5611
vn -0.3651 0.6326 0.6831
vn -0.3651 -0.6326 0.6831
vn -0.2999 0.7715 0.5611
vn -0.4162 -0.4696 0.7786
vn -0.2230 0.8810 0.4173
vn -0.4513 -0.2890 0.8443
vn -0.1374 0.9565 0.2571
vn -0.4691 -0.0975 0.8777
vn -0.0464 -0.9951 0.0869
vn -0.0464 0.9951 0.0869
vn -0.4691 0.0975 0.8777
vn -0.1374 -0.9565 0.2571
vn -0.4513 0.2890 0.8443
vn -0.2230 -0.8810 0.4173
vn -0.1850 0.9565 0.2254
vn -0.6314 -0.0976 0.7693
vn -0.0625 -0.9951 0.0761
vn -0.0625 0.9951 0.0761
vn -0.6314 0.0976 0.7693
vn -0.1850 -0.9565 0.2254
vn -0.6073 0.2890 0.7400
vn -0.3002 -0.8810 0.3658
vn -0.5601 0.4696 0.6825
vn -0.4036 -0.7715 0.4918
vn -0.4913 0.6326 0.5987
vn -0.4913 -0.6326 0.5987
vn -0.4036 0.7715 0.4918
vn -0.5601 -0.4696 0.6825
vn -0.3002 0.8810 0.3658
vn -0.6073 -0.2890 0.7400
vn -0.4918 -0.7715 0.4036
vn -0.5987 0.6326 0.4913
vn -0.5987 -0.6326 0.4913
vn -0.4918 0.7715 0.4036
vn -0.6825 -0.4696 0.5601
vn -0.3658 0.8810 0.3002
vn -0.7400 -0.2890 0.6073
vn -0.2254 0.9565 0.1850
vn -0.7693 -0.0975 0.6314
vn -0.0761 -0.9951 0.0625
vn -0.0761 0.9951 0.0625
vn -0.7693 0.0975 0.6314
vn -0.2254 -0.9565 0.1850
vn -0.7400 0.2890 0.6073
vn -0.3658 -0.8810 0.3002
vn -0.6825 0.4696 0.5601
vn -0.8777 -0.0976 0.4691
vn -0.0869 -0.9951 0.0464
vn -0.0869 0.9951 0.0464
vn -0.8777 0.0976 0.4691
vn -0.2571 -0.9565 0.1374
vn -0.8443 0.2890 0.4513
vn -0.4173 -0.8810 0.2231
vn -0.7786 0.4696 0.4162
vn -0.5611 -0.7715 0.2999
vn -0.6831 0.6326 0.3651
vn -0.6831 -0.6326 0.3651
vn -0.5611 0.7715 0.2999
vn -0.7786 -0.4696 0.4162
vn -0.4173 0.8810 0.2231
vn -0.8443 -0.2890 0.4513
vn -0.2571 0.9565 0.1374
vn 0.7786 0.4696 0.4162
vn 0.5611 -0.7715 0.2999
vn 0.6831 0.6326 0.3651
vn 0.6831 -0.6326 0.3651
vn 0.5611 0.7715 0.2999
vn 0.7786 -0.4696 0.4162
vn 0.4173 0.8810 0.2231
vn 0.8443 -0.2890 0.4513
vn 0.2571 0.9565 0.1374
vn 0.8777 -0.0976 0.4691
vn 0.0869 -0.9951 0.0464
vn 0.0869 0.9951 0.0464
vn 0.8777 0.0976 0.4691
vn 0.2571 -0.9565 0.1374
vn 0.8443 0.2890 0.4513
vn 0.4173 -0.8810 0.2231
vn 0.2254 0.9565 0.1850
vn 0.7693 -0.0976 0.6314
vn 0.0761 -0.9951 0.0625
vn 0.0761 0.9951 0.0625
vn 0.7693 0.0976 0.6314
vn 0.2254 -0.9565 0.1850
vn 0.7400 0.2890 0.6073
vn 0.3658 -0.8810 0.3002
vn 0.6825 0.4696 0.5601
vn 0.4918 -0.7715 0.4036
vn 0.5987 0.6326 0.4913
vn 0.5987 -0.6326 0.4913
vn 0.4918 0.7715 0.4036
vn 0.6825 -0.4696 0.5601
vn 0.3658 0.8810 0.3002
vn 0.7400 -0.2890 0.6073
vn 0.4036 -0.7715 0.4918
vn 0.4913 0.6326 0.5987
vn 0.4913 -0.6326 0.5987
vn 0.4036 0.7715 0.4918
vn 0.5601 -0.4696 0.6825
vn 0.3002 0.8810 0.3658
vn 0.6073 -0.2890 0.7400
vn 0.1850 0.9565 0.2254
vn 0.6314 -0.0976 0.7693
vn 0.0625 -0.9951 0.0761
vn 0.0625 0.9951 0.0761
vn 0.6314 0.0976 0.7693
vn 0.1850 -0.9565 0.2254
vn 0.6073 0.2890 0.7400
vn 0.3002 -0.8810 0.3658
vn 0.5601 0.4696 0.6825
vn 0.4691 -0.0976 0.8777
vn 0.0464 -0.9951 0.0869
vn 0.0464 0.9951 0.0869
vn 0.4691 0.0976 0.8777
vn 0.1374 -0.9565 0.2571
vn 0.4513 0.2890 0.8443
vn 0.2230 -0.8810 0.4173
vn 0.4162 0.4696 0.7786
vn 0.2999 -0.7715 0.5611
vn 0.3651 0.6326 0.6831
vn 0.3651 -0.6326 0.6831
vn 0.2999 0.7715 0.5611
vn 0.4162 -0.4696 0.7786
vn 0.2230 0.8810 0.4173
vn 0.4513 -0.2890 0.8443
vn 0.1374 0.9565 0.2571
vn 0.2248 0.6326 0.7412
vn 0.2248 -0.6326 0.7412
vn 0.1847 0.7715 0.6088
vn 0.2563 -0.4696 0.8448
vn 0.1374 0.8810 0.4528
vn 0.2779 -0.2890 0.9161
vn 0.0846 0.9565 0.2790
vn 0.2889 -0.0976 0.9524
vn 0.0286 -0.9951 0.0942
vn 0.0286 0.9951 0.0942
vn 0.2889 0.0976 0.9524
vn 0.0846 -0.9565 0.2790
vn 0.2779 0.2890 0.9161
vn 0.1374 -0.8810 0.4528
vn 0.2563 0.4696 0.8448
vn 0.1847 -0.7715 0.6088
vn 0.0097 -0.9951 0.0980
vn 0.0097 0.9951 0.0980
vn 0.0976 0.0976 0.9904
vn 0.0286 -0.9565 0.2902
vn 0.0938 0.2890 0.9527
vn 0.0464 -0.8810 0.4709
vn 0.0865 0.4696 0.8786
vn 0.0624 -0.7715 0.6332
vn 0.0759 0.6326 0.7708
vn 0.0759 -0.6326 0.7708
vn 0.0624 0.7715 0.6332
vn 0.0865 -0.4696 0.8786
vn 0.0464 0.8810 0.4709
vn 0.0938 -0.2890 0.9527
vn 0.0286 0.9565 0.2902
vn 0.0976 -0.0976 0.9904
usemtl None
s off
f 8/1/1 18/2/1 17/3/1 7/4/1
f 1/5/2 11/6/2 102/7/2
f 101/8/3 25/9/3 197/10/3
f 9/11/4 19/12/4 18/2/4 8/1/4
f 2/13/5 12/14/5 11/6/5 1/5/5
f 193/15/6 20/16/6 19/12/6 9/11/6
f 3/17/7 13/18/7 12/14/7 2/13/7
f 194/19/8 21/20/8 20/16/8 193/15/8
f 4/21/9 14/22/9 13/18/9 3/17/9
f 195/23/10 22/24/10 21/20/10 194/19/10
f 5/25/11 15/26/11 14/22/11 4/21/11
f 10/27/12 23/28/12 22/24/12 195/23/12
f 6/29/13 16/30/13 15/26/13 5/25/13
f 196/31/14 24/32/14 23/28/14 10/27/14
f 7/4/15 17/3/15 16/30/15 6/29/15
f 197/10/16 25/9/16 24/32/16 196/31/16
f 17/3/17 32/33/17 31/34/17 16/30/17
f 25/9/18 40/35/18 39/36/18 24/32/18
f 18/2/19 33/37/19 32/33/19 17/3/19
f 11/6/20 26/38/20 102/39/20
f 101/40/21 40/35/21 25/9/21
f 19/12/22 34/41/22 33/37/22 18/2/22
f 12/14/23 27/42/23 26/38/23 11/6/23
f 20/16/24 35/43/24 34/41/24 19/12/24
f 13/18/25 28/44/25 27/42/25 12/14/25
f 21/20/26 36/45/26 35/43/26 20/16/26
f 14/22/27 29/46/27 28/44/27 13/18/27
f 22/24/28 37/47/28 36/45/28 21/20/28
f 15/26/29 30/48/29 29/46/29 14/22/29
f 23/28/30 38/49/30 37/47/30 22/24/30
f 16/30/31 31/34/31 30/48/31 15/26/31
f 24/32/32 39/36/32 38/49/32 23/28/32
f 36/45/33 51/50/33 50/51/33 35/43/33
f 29/46/34 44/52/34 43/53/34 28/44/34
f 37/47/35 52/54/35 51/50/35 36/45/35
f 30/48/36 45/55/36 44/52/36 29/46/36
f 38/49/37 53/56/37 52/54/37 37/47/37
f 31/34/38 46/57/38 45/55/38 30/48/38
f 39/36/39 54/58/39 53/56/39 38/49/39
f 32/33/40 47/59/40 46/57/40 31/34/40
f 40/35/41 55/60/41 54/58/41 39/36/41
f 33/37/42 48/61/42 47/59/42 32/33/42
f 26/38/43 41/62/43 102/63/43
f 101/64/44 55/60/44 40/35/44
f 34/41/45 49/65/45 48/61/45 33/37/45
f 27/42/46 42/66/46 41/62/46 26/38/46
f 35/43/47 50/51/47 49/65/47 34/41/47
f 28/44/48 43/53/48 42/66/48 27/42/48
f 55/60/49 70/67/49 69/68/49 54/58/49
f 48/61/50 63/69/50 62/70/50 47/59/50
f 41/62/51 56/71/51 102/72/51
f 101/73/52 70/67/52 55/60/52
f 49/65/53 64/74/53 63/69/53 48/61/53
f 42/66/54 57/75/54 56/71/54 41/62/54
f 50/51/55 65/76/55 64/74/55 49/65/55
f 43/53/56 58/77/56 57/75/56 42/66/56
f 51/50/57 66/78/57 65/76/57 50/51/57
f 44/52/58 59/79/58 58/77/58 43/53/58
f 52/54/59 67/80/59 66/78/59 51/50/59
f 45/55/60 60/81/60 59/79/60 44/52/60
f 53/56/61 68/82/61 67/80/61 52/54/61
f 46/57/62 61/83/62 60/81/62 45/55/62
f 54/58/63 69/68/63 68/82/63 53/56/63
f 47/59/64 62/70/64 61/83/64 46/57/64
f 59/79/65 74/84/65 73/85/65 58/77/65
f 67/80/66 82/86/66 81/87/66 66/78/66
f 60/81/67 75/88/67 74/84/67 59/79/67
f 68/82/68 83/89/68 82/86/68 67/80/68
f 61/83/69 76/90/69 75/88/69 60/81/69
f 69/68/70 84/91/70 83/89/70 68/82/70
f 62/70/71 77/92/71 76/90/71 61/83/71
f 70/67/72 85/93/72 84/91/72 69/68/72
f 63/69/73 78/94/73 77/92/73 62/70/73
f 56/71/74 71/95/74 102/96/74
f 101/97/75 85/93/75 70/67/75
f 64/74/76 79/98/76 78/94/76 63/69/76
f 57/75/77 72/99/77 71/95/77 56/71/77
f 65/76/78 80/100/78 79/98/78 64/74/78
f 58/77/79 73/85/79 72/99/79 57/75/79
f 66/78/80 81/87/80 80/100/80 65/76/80
f 78/94/81 93/101/81 92/102/81 77/92/81
f 71/95/82 86/103/82 102/104/82
f 101/105/83 100/106/83 85/93/83
f 79/98/84 94/107/84 93/101/84 78/94/84
f 72/99/85 87/108/85 86/103/85 71/95/85
f 80/100/86 95/109/86 94/107/86 79/98/86
f 73/85/87 88/110/87 87/108/87 72/99/87
f 81/87/88 96/111/88 95/109/88 80/100/88
f 74/84/89 89/112/89 88/110/89 73/85/89
f 82/86/90 97/113/90 96/111/90 81/87/90
f 75/88/91 90/114/91 89/112/91 74/84/91
f 83/89/92 98/115/92 97/113/92 82/86/92
f 76/90/93 91/116/93 90/114/93 75/88/93
f 84/91/94 99/117/94 98/115/94 83/89/94
f 77/92/95 92/102/95 91/116/95 76/90/95
f 85/93/96 100/106/96 99/117/96 84/91/96
f 113/118/97 128/119/97 127/120/97 112/121/97
f 106/122/98 121/123/98 120/124/98 105/125/98
f 114/126/99 129/127/99 128/119/99 113/118/99
f 107/128/100 122/129/100 121/123/100 106/122/100
f 115/130/101 130/131/101 129/127/101 114/126/101
f 108/132/102 123/133/102 122/129/102 107/128/102
f 116/134/103 131/135/103 130/131/103 115/130/103
f 109/136/104 124/137/104 123/133/104 108/132/104
f 117/138/105 132/139/105 131/135/105 116/134/105
f 110/140/106 125/141/106 124/137/106 109/136/106
f 103/142/107 118/143/107 102/144/107
f 101/145/108 132/139/108 117/138/108
f 111/146/109 126/147/109 125/141/109 110/140/109
f 104/148/110 119/149/110 118/143/110 103/142/110
f 112/121/111 127/120/111 126/147/111 111/146/111
f 105/125/112 120/124/112 119/149/112 104/148/112
f 132/139/113 147/150/113 146/151/113 131/135/113
f 125/141/114 140/152/114 139/153/114 124/137/114
f 118/143/115 133/154/115 102/155/115
f 101/156/116 147/150/116 132/139/116
f 126/147/117 141/157/117 140/152/117 125/141/117
f 119/149/118 134/158/118 133/154/118 118/143/118
f 127/120/119 142/159/119 141/157/119 126/147/119
f 120/124/120 135/160/120 134/158/120 119/149/120
f 128/119/121 143/161/121 142/159/121 127/120/121
f 121/123/122 136/162/122 135/160/122 120/124/122
f 129/127/123 144/163/123 143/161/123 128/119/123
f 122/129/124 137/164/124 136/162/124 121/123/124
f 130/131/125 145/165/125 144/163/125 129/127/125
f 123/133/126 138/166/126 137/164/126 122/129/126
f 131/135/127 146/151/127 145/165/127 130/131/127
f 124/137/128 139/153/128 138/166/128 123/133/128
f 136/162/129 151/167/129 150/168/129 135/160/129
f 144/163/130 159/169/130 158/170/130 143/161/130
f 137/164/131 152/171/131 151/167/131 136/162/131
f 145/165/132 160/172/132 159/169/132 144/163/132
f 138/166/133 153/173/133 152/171/133 137/164/133
f 146/151/134 161/174/134 160/172/134 145/165/134
f 139/153/135 154/175/135 153/173/135 138/166/135
f 147/150/136 162/176/136 161/174/136 146/151/136
f 140/152/137 155/177/137 154/175/137 139/153/137
f 133/154/138 148/178/138 102/179/138
f 101/180/139 162/176/139 147/150/139
f 141/157/140 156/181/140 155/177/140 140/152/140
f 134/158/141 149/182/141 148/178/141 133/154/141
f 142/159/142 157/183/142 156/181/142 141/157/142
f 135/160/143 150/168/143 149/182/143 134/158/143
f 143/161/144 158/170/144 157/183/144 142/159/144
f 155/177/145 170/184/145 169/185/145 154/175/145
f 148/178/146 163/186/146 102/187/146
f 101/188/147 177/189/147 162/176/147
f 156/181/148 171/190/148 170/184/148 155/177/148
f 149/182/149 164/191/149 163/186/149 148/178/149
f 157/183/150 172/192/150 171/190/150 156/181/150
f 150/168/151 165/193/151 164/191/151 149/182/151
f 158/170/152 173/194/152 172/192/152 157/183/152
f 151/167/153 166/195/153 165/193/153 150/168/153
f 159/169/154 174/196/154 173/194/154 158/170/154
f 152/171/155 167/197/155 166/195/155 151/167/155
f 160/172/156 175/198/156 174/196/156 159/169/156
f 153/173/157 168/199/157 167/197/157 152/171/157
f 161/174/158 176/200/158 175/198/158 160/172/158
f 154/175/159 169/185/159 168/199/159 153/173/159
f 162/176/160 177/189/160 176/200/160 161/174/160
f 174/196/161 189/201/161 188/202/161 173/194/161
f 167/197/162 182/203/162 181/204/162 166/195/162
f 175/198/163 190/205/163 189/201/163 174/196/163
f 168/199/164 183/206/164 182/203/164 167/197/164
f 176/200/165 191/207/165 190/205/165 175/198/165
f 169/185/166 184/208/166 183/206/166 168/199/166
f 177/189/167 192/209/167 191/207/167 176/200/167
f 170/184/168 185/210/168 184/208/168 169/185/168
f 163/186/169 178/211/169 102/212/169
f 101/213/170 192/209/170 177/189/170
f 171/190/171 186/214/171 185/210/171 170/184/171
f 164/191/172 179/215/172 178/211/172 163/186/172
f 172/192/173 187/216/173 186/214/173 171/190/173
f 165/193/174 180/217/174 179/215/174 164/191/174
f 173/194/175 188/202/175 187/216/175 172/192/175
f 166/195/176 181/204/176 180/217/176 165/193/176
f 178/211/177 1/5/177 102/218/177
f 101/219/178 197/10/178 192/209/178
f 186/214/179 9/11/179 8/1/179 185/210/179
f 179/215/180 2/13/180 1/5/180 178/211/180
f 187/216/181 193/15/181 9/11/181 186/214/181
f 180/217/182 3/17/182 2/13/182 179/215/182
f 188/202/183 194/19/183 193/15/183 187/216/183
f 181/204/184 4/21/184 3/17/184 180/217/184
f 189/201/185 195/23/185 194/19/185 188/202/185
f 182/203/186 5/25/186 4/21/186 181/204/186
f 190/205/187 10/27/187 195/23/187 189/201/187
f 183/206/188 6/29/188 5/25/188 182/203/188
f 191/207/189 196/31/189 10/27/189 190/205/189
f 184/208/190 7/4/190 6/29/190 183/206/190
f 192/209/191 197/10/191 196/31/191 191/207/191
f 185/210/192 8/1/192 7/4/192 184/208/192
